<svg width="271" height="31" viewBox="0 0 271 31" fill="none" xmlns="http://www.w3.org/2000/svg">
<path d="M5.16309 23H0.695312V1.58398H12.9707V5.30469H5.16309V10.8271H12.4287V14.5332H5.16309V23ZM27.209 23L26.3447 20.7734H26.2275C25.4756 21.7207 24.6992 22.3799 23.8984 22.751C23.1074 23.1123 22.0723 23.293 20.793 23.293C19.2207 23.293 17.9805 22.8438 17.0723 21.9453C16.1738 21.0469 15.7246 19.7676 15.7246 18.1074C15.7246 16.3691 16.3301 15.0898 17.541 14.2695C18.7617 13.4395 20.5977 12.9805 23.0488 12.8926L25.8906 12.8047V12.0869C25.8906 10.4268 25.041 9.59668 23.3418 9.59668C22.0332 9.59668 20.4951 9.99219 18.7275 10.7832L17.248 7.76562C19.1328 6.7793 21.2227 6.28613 23.5176 6.28613C25.7148 6.28613 27.3994 6.76465 28.5713 7.72168C29.7432 8.67871 30.3291 10.1338 30.3291 12.0869V23H27.209ZM25.8906 15.4121L24.1621 15.4707C22.8633 15.5098 21.8965 15.7441 21.2617 16.1738C20.627 16.6035 20.3096 17.2578 20.3096 18.1367C20.3096 19.3965 21.0322 20.0264 22.4775 20.0264C23.5127 20.0264 24.3379 19.7285 24.9531 19.1328C25.5781 18.5371 25.8906 17.7461 25.8906 16.7598V15.4121ZM46.3691 18.1367C46.3691 19.8164 45.7832 21.0957 44.6113 21.9746C43.4492 22.8535 41.7061 23.293 39.3818 23.293C38.1904 23.293 37.1748 23.21 36.335 23.0439C35.4951 22.8877 34.709 22.6533 33.9766 22.3408V18.6494C34.8066 19.04 35.7393 19.3672 36.7744 19.6309C37.8193 19.8945 38.7373 20.0264 39.5283 20.0264C41.1494 20.0264 41.96 19.5576 41.96 18.6201C41.96 18.2686 41.8525 17.9854 41.6377 17.7705C41.4229 17.5459 41.0518 17.2969 40.5244 17.0234C39.9971 16.7402 39.2939 16.4131 38.415 16.042C37.1553 15.5146 36.2275 15.0264 35.6318 14.5771C35.0459 14.1279 34.6162 13.6152 34.3428 13.0391C34.0791 12.4531 33.9473 11.7354 33.9473 10.8857C33.9473 9.43066 34.5088 8.30762 35.6318 7.5166C36.7646 6.71582 38.3662 6.31543 40.4365 6.31543C42.4092 6.31543 44.3281 6.74512 46.1934 7.60449L44.8457 10.8271C44.0254 10.4756 43.2588 10.1875 42.5459 9.96289C41.833 9.73828 41.1055 9.62598 40.3633 9.62598C39.0449 9.62598 38.3857 9.98242 38.3857 10.6953C38.3857 11.0957 38.5957 11.4424 39.0156 11.7354C39.4453 12.0283 40.3779 12.4629 41.8135 13.0391C43.0928 13.5566 44.0303 14.04 44.626 14.4893C45.2217 14.9385 45.6611 15.4561 45.9443 16.042C46.2275 16.6279 46.3691 17.3262 46.3691 18.1367ZM64.9727 23H60.5049V13.4346C60.5049 11.0713 59.626 9.88965 57.8682 9.88965C56.6182 9.88965 55.7148 10.3145 55.1582 11.1641C54.6016 12.0137 54.3232 13.3906 54.3232 15.2949V23H49.8555V0.207031H54.3232V4.85059C54.3232 5.21191 54.2891 6.06152 54.2207 7.39941L54.1182 8.71777H54.3525C55.3486 7.11621 56.9307 6.31543 59.0986 6.31543C61.0225 6.31543 62.4824 6.83301 63.4785 7.86816C64.4746 8.90332 64.9727 10.3877 64.9727 12.3213V23ZM69.3818 2.38965C69.3818 0.93457 70.1924 0.207031 71.8135 0.207031C73.4346 0.207031 74.2451 0.93457 74.2451 2.38965C74.2451 3.08301 74.04 3.625 73.6299 4.01562C73.2295 4.39648 72.624 4.58691 71.8135 4.58691C70.1924 4.58691 69.3818 3.85449 69.3818 2.38965ZM74.04 23H69.5723V6.62305H74.04V23ZM82.3018 14.7822C82.3018 16.4033 82.5654 17.6289 83.0928 18.459C83.6299 19.2891 84.499 19.7041 85.7002 19.7041C86.8916 19.7041 87.7461 19.2939 88.2637 18.4736C88.791 17.6436 89.0547 16.4131 89.0547 14.7822C89.0547 13.1611 88.791 11.9453 88.2637 11.1348C87.7363 10.3242 86.8721 9.91895 85.6709 9.91895C84.4795 9.91895 83.6201 10.3242 83.0928 11.1348C82.5654 11.9355 82.3018 13.1514 82.3018 14.7822ZM93.625 14.7822C93.625 17.4482 92.9219 19.5332 91.5156 21.0371C90.1094 22.541 88.1514 23.293 85.6416 23.293C84.0693 23.293 82.6826 22.9512 81.4814 22.2676C80.2803 21.5742 79.3574 20.583 78.7129 19.2939C78.0684 18.0049 77.7461 16.501 77.7461 14.7822C77.7461 12.1064 78.4443 10.0264 79.8408 8.54199C81.2373 7.05762 83.2002 6.31543 85.7295 6.31543C87.3018 6.31543 88.6885 6.65723 89.8896 7.34082C91.0908 8.02441 92.0137 9.00586 92.6582 10.2852C93.3027 11.5645 93.625 13.0635 93.625 14.7822ZM112.434 23H107.966V13.4346C107.966 12.2529 107.756 11.3691 107.336 10.7832C106.916 10.1875 106.247 9.88965 105.329 9.88965C104.079 9.88965 103.176 10.3096 102.619 11.1494C102.062 11.9795 101.784 13.3613 101.784 15.2949V23H97.3164V6.62305H100.729L101.33 8.71777H101.579C102.077 7.92676 102.761 7.33105 103.63 6.93066C104.509 6.52051 105.505 6.31543 106.618 6.31543C108.522 6.31543 109.968 6.83301 110.954 7.86816C111.94 8.89355 112.434 10.3779 112.434 12.3213V23ZM133.439 23H128.898V5.36328H123.083V1.58398H139.255V5.36328H133.439V23ZM148.981 9.49414C148.034 9.49414 147.292 9.79688 146.755 10.4023C146.218 10.998 145.91 11.8477 145.832 12.9512H152.102C152.082 11.8477 151.794 10.998 151.237 10.4023C150.681 9.79688 149.929 9.49414 148.981 9.49414ZM149.611 23.293C146.975 23.293 144.914 22.5654 143.43 21.1104C141.945 19.6553 141.203 17.5947 141.203 14.9287C141.203 12.1846 141.887 10.0654 143.254 8.57129C144.631 7.06738 146.53 6.31543 148.952 6.31543C151.267 6.31543 153.068 6.97461 154.357 8.29297C155.646 9.61133 156.291 11.4326 156.291 13.7568V15.9248H145.729C145.778 17.1943 146.154 18.1855 146.857 18.8984C147.561 19.6113 148.547 19.9678 149.816 19.9678C150.803 19.9678 151.735 19.8652 152.614 19.6602C153.493 19.4551 154.411 19.1279 155.368 18.6787V22.1357C154.587 22.5264 153.752 22.8145 152.863 23C151.975 23.1953 150.891 23.293 149.611 23.293ZM174.587 23H170.119V13.4346C170.119 12.2529 169.919 11.3691 169.519 10.7832C169.128 10.1875 168.508 9.88965 167.658 9.88965C166.516 9.88965 165.686 10.3096 165.168 11.1494C164.65 11.9893 164.392 13.3711 164.392 15.2949V23H159.924V6.62305H163.337L163.938 8.71777H164.187C164.626 7.96582 165.261 7.37988 166.091 6.95996C166.921 6.53027 167.873 6.31543 168.947 6.31543C171.398 6.31543 173.059 7.11621 173.928 8.71777H174.323C174.763 7.95605 175.407 7.36523 176.257 6.94531C177.116 6.52539 178.083 6.31543 179.157 6.31543C181.013 6.31543 182.414 6.79395 183.361 7.75098C184.318 8.69824 184.797 10.2217 184.797 12.3213V23H180.314V13.4346C180.314 12.2529 180.114 11.3691 179.714 10.7832C179.323 10.1875 178.703 9.88965 177.854 9.88965C176.76 9.88965 175.939 10.2803 175.393 11.0615C174.855 11.8428 174.587 13.083 174.587 14.7822V23ZM198.391 23.293C196.467 23.293 194.958 22.5947 193.864 21.1982H193.63C193.786 22.5654 193.864 23.3564 193.864 23.5713V30.207H189.396V6.62305H193.029L193.659 8.74707H193.864C194.909 7.12598 196.457 6.31543 198.508 6.31543C200.441 6.31543 201.955 7.0625 203.049 8.55664C204.143 10.0508 204.689 12.126 204.689 14.7822C204.689 16.5303 204.431 18.0488 203.913 19.3379C203.405 20.627 202.678 21.6084 201.73 22.2822C200.783 22.9561 199.67 23.293 198.391 23.293ZM197.072 9.88965C195.969 9.88965 195.163 10.2314 194.655 10.915C194.147 11.5889 193.884 12.707 193.864 14.2695V14.7529C193.864 16.5107 194.123 17.7705 194.641 18.5322C195.168 19.2939 195.998 19.6748 197.131 19.6748C199.133 19.6748 200.134 18.0244 200.134 14.7236C200.134 13.1123 199.885 11.9062 199.387 11.1055C198.898 10.2949 198.127 9.88965 197.072 9.88965ZM212.849 23H208.381V0.207031H212.849V23ZM227.951 23L227.087 20.7734H226.97C226.218 21.7207 225.441 22.3799 224.641 22.751C223.85 23.1123 222.814 23.293 221.535 23.293C219.963 23.293 218.723 22.8438 217.814 21.9453C216.916 21.0469 216.467 19.7676 216.467 18.1074C216.467 16.3691 217.072 15.0898 218.283 14.2695C219.504 13.4395 221.34 12.9805 223.791 12.8926L226.633 12.8047V12.0869C226.633 10.4268 225.783 9.59668 224.084 9.59668C222.775 9.59668 221.237 9.99219 219.47 10.7832L217.99 7.76562C219.875 6.7793 221.965 6.28613 224.26 6.28613C226.457 6.28613 228.142 6.76465 229.313 7.72168C230.485 8.67871 231.071 10.1338 231.071 12.0869V23H227.951ZM226.633 15.4121L224.904 15.4707C223.605 15.5098 222.639 15.7441 222.004 16.1738C221.369 16.6035 221.052 17.2578 221.052 18.1367C221.052 19.3965 221.774 20.0264 223.22 20.0264C224.255 20.0264 225.08 19.7285 225.695 19.1328C226.32 18.5371 226.633 17.7461 226.633 16.7598V15.4121ZM242.585 19.7334C243.366 19.7334 244.304 19.5625 245.397 19.2207V22.5459C244.284 23.0439 242.917 23.293 241.296 23.293C239.509 23.293 238.205 22.8438 237.385 21.9453C236.574 21.0371 236.169 19.6797 236.169 17.873V9.97754H234.03V8.08789L236.491 6.59375L237.78 3.13672H240.637V6.62305H245.222V9.97754H240.637V17.873C240.637 18.5078 240.812 18.9766 241.164 19.2793C241.525 19.582 241.999 19.7334 242.585 19.7334ZM255.505 9.49414C254.558 9.49414 253.815 9.79688 253.278 10.4023C252.741 10.998 252.434 11.8477 252.355 12.9512H258.625C258.605 11.8477 258.317 10.998 257.761 10.4023C257.204 9.79688 256.452 9.49414 255.505 9.49414ZM256.135 23.293C253.498 23.293 251.438 22.5654 249.953 21.1104C248.469 19.6553 247.727 17.5947 247.727 14.9287C247.727 12.1846 248.41 10.0654 249.777 8.57129C251.154 7.06738 253.054 6.31543 255.476 6.31543C257.79 6.31543 259.592 6.97461 260.881 8.29297C262.17 9.61133 262.814 11.4326 262.814 13.7568V15.9248H252.253C252.302 17.1943 252.678 18.1855 253.381 18.8984C254.084 19.6113 255.07 19.9678 256.34 19.9678C257.326 19.9678 258.259 19.8652 259.138 19.6602C260.017 19.4551 260.935 19.1279 261.892 18.6787V22.1357C261.11 22.5264 260.275 22.8145 259.387 23C258.498 23.1953 257.414 23.293 256.135 23.293Z" fill="black"/>
<path d="M265.817 20.9053C265.817 20.085 266.037 19.4648 266.477 19.0449C266.916 18.625 267.556 18.415 268.396 18.415C269.206 18.415 269.831 18.6299 270.271 19.0596C270.72 19.4893 270.944 20.1045 270.944 20.9053C270.944 21.6768 270.72 22.2871 270.271 22.7363C269.821 23.1758 269.196 23.3955 268.396 23.3955C267.575 23.3955 266.94 23.1807 266.491 22.751C266.042 22.3115 265.817 21.6963 265.817 20.9053Z" fill="#BCA858"/>
</svg>
